<svg width="164" height="184" viewBox="0 0 164 184" fill="none" xmlns="http://www.w3.org/2000/svg">
<path d="M163.237 53.9415C163.236 50.8564 162.576 48.1304 161.242 45.7908C159.931 43.4901 157.968 41.5618 155.336 40.0372C133.603 27.5061 111.85 15.0134 90.1241 2.46953C84.267 -0.911853 78.5882 -0.78858 72.7745 2.64135C64.1243 7.74281 20.8159 32.5552 7.91055 40.0301C2.59576 43.1068 0.00958081 47.8155 0.00830337 53.9357C0 79.1364 0.00830337 104.337 0 129.538C0.00127744 132.555 0.632972 135.228 1.9085 137.533C3.21979 139.903 5.21004 141.884 7.90353 143.443C20.8095 150.918 64.1237 175.729 72.772 180.832C78.5882 184.263 84.267 184.386 90.126 181.003C111.852 168.459 133.607 155.967 155.343 143.436C158.036 141.877 160.026 139.895 161.338 137.526C162.611 135.222 163.244 132.549 163.245 129.531C163.245 129.531 163.245 79.1428 163.237 53.9415" fill="#5C8DBC"/>
<path d="M81.8726 91.4912L1.90857 137.533C3.21986 139.903 5.21012 141.884 7.9036 143.443C20.8096 150.918 64.1238 175.729 72.7721 180.832C78.5882 184.263 84.2671 184.386 90.1261 181.003C111.852 168.459 133.607 155.967 155.343 143.436C158.036 141.877 160.026 139.895 161.338 137.526L81.8726 91.4912Z" fill="#1A4674"/>
<path d="M58.188 105.129C62.8411 113.252 71.5883 118.731 81.6226 118.731C91.7189 118.731 100.516 113.183 105.145 104.973L81.8724 91.4912L58.188 105.129Z" fill="#1A4674"/>
<path d="M163.237 53.9415C163.236 50.8565 162.576 48.1304 161.242 45.7908L81.8724 91.4912L161.338 137.526C162.611 135.222 163.244 132.549 163.245 129.531C163.245 129.531 163.245 79.1428 163.237 53.9415" fill="#1B598E"/>
<path d="M158.868 94.7818H152.658V100.993H146.447V94.7818H140.238V88.5728H146.447V82.3632H152.658V88.5728H158.868V94.7818Z" fill="white"/>
<path d="M136.209 94.7818H130V100.993H123.79V94.7818H117.581V88.5728H123.79V82.3632H130V88.5728H136.209V94.7818Z" fill="white"/>
<path d="M105.146 104.973C100.516 113.183 91.719 118.731 81.6228 118.731C71.5885 118.731 62.8412 113.252 58.1881 105.129C55.9277 101.182 54.6279 96.6118 54.6279 91.7364C54.6279 76.828 66.7144 64.7422 81.6228 64.7422C91.5926 64.7422 100.294 70.1528 104.97 78.193L128.565 64.6061C119.187 48.4171 101.677 37.5256 81.6228 37.5256C51.6821 37.5256 27.4114 61.797 27.4114 91.7364C27.4114 101.559 30.0244 110.77 34.5912 118.715C43.9459 134.989 61.505 145.948 81.6228 145.948C101.778 145.948 119.364 134.945 128.705 118.623L105.146 104.973Z" fill="white"/>
</svg>