<svg width="35" height="34" viewBox="0 0 35 34" fill="none" xmlns="http://www.w3.org/2000/svg">
<path d="M17.1068 15.4885L21.4185 11.3028C21.7366 10.994 22.2524 10.994 22.5705 11.3028C22.8887 11.6117 22.8887 12.1124 22.5705 12.4212L18.2589 16.6068L22.5705 20.7925C22.8887 21.1013 22.8887 21.602 22.5705 21.9108C22.2524 22.2197 21.7366 22.2197 21.4185 21.9108L17.1068 17.7252L12.7952 21.9108C12.4771 22.2197 11.9613 22.2197 11.6432 21.9108C11.325 21.602 11.325 21.1013 11.6432 20.7925L15.9548 16.6068L11.6432 12.4212C11.325 12.1124 11.325 11.6117 11.6432 11.3028C11.9613 10.994 12.4771 10.994 12.7952 11.3028L17.1068 15.4885ZM17.1068 33.2137C7.65899 33.2137 0 25.7785 0 16.6068C0 7.43514 7.65899 0 17.1068 0C26.5547 0 34.2137 7.43514 34.2137 16.6068C34.2137 25.7785 26.5547 33.2137 17.1068 33.2137ZM17.1068 31.6321C25.6549 31.6321 32.5845 24.9051 32.5845 16.6068C32.5845 8.30863 25.6549 1.5816 17.1068 1.5816C8.55879 1.5816 1.62922 8.30863 1.62922 16.6068C1.62922 24.9051 8.55879 31.6321 17.1068 31.6321Z" fill="black"/>
</svg>