<svg width="164" height="231" viewBox="0 0 164 231" fill="none" xmlns="http://www.w3.org/2000/svg">
<path d="M81.5228 230.421L14.8563 211.914L0 45.2832H163.245L148.373 211.888L81.5228 230.421Z" fill="#264DE4"/>
<path d="M135.641 201.279L148.35 58.9078H81.6227V216.256L135.641 201.279Z" fill="#2965F1"/>
<path d="M34.0579 120.709L35.8895 141.145H81.6228V120.709H34.0579Z" fill="#EBEBEB"/>
<path d="M30.3774 79.3446L32.2352 99.7815H81.6228V79.3446H30.3774Z" fill="#EBEBEB"/>
<path d="M81.6228 173.785L81.5333 173.809L58.7729 167.663L57.3179 151.364H36.8027L39.6659 183.452L81.5288 195.074L81.6228 195.048V173.785Z" fill="#EBEBEB"/>
<path d="M38.4187 0H63.171V10.351H48.7697V20.7019H63.171V31.0529H38.4187V0Z" fill="black"/>
<path d="M68.1215 0H92.8738V9.00084H78.4724V10.801H92.8738V31.5029H68.1215V22.052H82.5228V20.2519H68.1215V0Z" fill="black"/>
<path d="M97.8242 0H122.577V9.00084H108.175V10.801H122.577V31.5029H97.8242V22.052H112.226V20.2519H97.8242V0Z" fill="black"/>
<path d="M129.057 120.709L132.746 79.3446H81.552V99.7814H110.349L108.49 120.709H81.552V141.145H106.717L104.345 167.65L81.552 173.802V195.064L123.448 183.452L123.756 180L128.558 126.197L129.057 120.709Z" fill="white"/>
</svg>