<svg width="164" height="231" viewBox="0 0 164 231" fill="none" xmlns="http://www.w3.org/2000/svg">
<path d="M163.245 45.2832L148.373 211.888L81.5228 230.421L14.8563 211.914L0 45.2832H163.245Z" fill="#E44D26"/>
<path d="M81.6227 216.256L135.641 201.279L148.35 58.9078H81.6227V216.256Z" fill="#F16529"/>
<path d="M52.712 99.7814H81.6227V79.3446H30.3773L30.8665 84.8275L35.8894 141.145H81.6227V120.709H54.5797L52.712 99.7814Z" fill="#EBEBEB"/>
<path d="M57.3178 151.364H36.8026L39.6658 183.452L81.5287 195.074L81.6227 195.048V173.785L81.5332 173.809L58.7728 167.663L57.3178 151.364Z" fill="#EBEBEB"/>
<path d="M15.1885 0H25.5741V10.261H35.0745V0H45.4605V31.0727H35.0749V20.6677H25.5745V31.0727H15.1889V0H15.1885Z" fill="black"/>
<path d="M59.1179 10.3042H49.9749V0H78.6515V10.3042H69.5044V31.0727H59.1184V10.3042H59.1179Z" fill="black"/>
<path d="M83.2028 0H94.0321L100.694 10.918L107.348 0H118.182V31.0727H107.839V15.6714L100.694 26.7194H100.515L93.3647 15.6714V31.0727H83.2028V0Z" fill="black"/>
<path d="M123.351 0H133.739V20.8018H148.345V31.0727H123.351V0Z" fill="black"/>
<path d="M81.552 141.145H106.717L104.345 167.65L81.552 173.802V195.064L123.448 183.452L123.756 180L128.558 126.197L129.057 120.709H81.552V141.145Z" fill="white"/>
<path d="M81.552 99.7315V99.7815H130.916L131.326 95.1879L132.257 84.8275L132.746 79.3446H81.552V99.7315Z" fill="white"/>
</svg>