<svg width="164" height="304" viewBox="0 0 164 304" fill="none" xmlns="http://www.w3.org/2000/svg">
<path d="M53.9695 161.059C53.9695 161.059 46.0164 165.687 59.639 167.251C76.141 169.135 84.5761 168.864 102.759 165.427C102.759 165.427 107.552 168.423 114.226 171.019C73.4528 188.488 21.9462 170.007 53.9695 161.059ZM48.9831 138.257C48.9831 138.257 40.0612 144.867 53.6935 146.276C71.3241 148.095 85.2421 148.245 109.344 143.605C109.344 143.605 112.669 146.986 117.907 148.829C68.6189 163.248 13.7194 149.964 48.9831 138.257V138.257Z" fill="#0074BD"/>
<path d="M90.9842 99.5792C101.037 111.151 88.3493 121.555 88.3493 121.555C88.3493 121.555 113.858 108.387 102.144 91.8925C91.1998 76.5165 82.8131 68.8806 128.229 42.5413C128.231 42.5413 56.9363 60.3414 90.9842 99.5792Z" fill="#EA2D2E"/>
<path d="M144.91 177.924C144.91 177.924 150.8 182.78 138.424 186.534C114.894 193.661 40.4776 195.811 19.8077 186.817C12.3825 183.584 26.315 179.099 30.696 178.157C35.2659 177.166 37.8766 177.348 37.8766 177.348C29.6135 171.528 -15.5359 188.776 14.9447 193.724C98.0702 207.196 166.469 187.655 144.91 177.924V177.924ZM57.7982 114.633C57.7982 114.633 19.9481 123.625 44.3961 126.895C54.7226 128.275 75.2932 127.958 94.469 126.35C110.136 125.035 125.858 122.223 125.858 122.223C125.858 122.223 120.338 124.591 116.34 127.318C77.8967 137.429 3.64708 132.719 25.0242 122.383C43.098 113.638 57.7982 114.633 57.7982 114.633V114.633ZM125.7 152.582C164.776 132.283 146.707 112.773 134.097 115.401C131.014 116.045 129.628 116.602 129.628 116.602C129.628 116.602 130.779 114.8 132.966 114.028C157.915 105.261 177.098 139.895 124.921 153.612C124.921 153.612 125.519 153.069 125.7 152.582Z" fill="#0074BD"/>
<path d="M102.146 0C102.146 0 123.785 21.6484 81.6192 54.931C47.8062 81.636 73.9083 96.8594 81.6047 114.26C61.8671 96.4501 47.3897 80.7715 57.101 66.1826C71.363 44.7692 110.874 34.3821 102.146 0V0Z" fill="#EA2D2E"/>
<path d="M61.6419 207.61C99.1408 210.008 156.743 206.276 158.107 188.531C158.107 188.531 155.486 195.257 127.11 200.594C95.0988 206.62 55.6116 205.92 32.1978 202.055C32.1978 202.055 36.9929 206.026 61.6419 207.61V207.61Z" fill="#0074BD"/>
<path d="M156.375 239.437H155.232V238.798H158.307V239.437H157.169V242.627H156.372L156.375 239.437ZM162.514 239.597H162.5L161.366 242.627H160.843L159.717 239.597H159.705V242.627H158.949V238.798H160.056L161.1 241.508L162.146 238.798H163.245V242.627H162.514V239.597ZM55.4953 275.415C51.9595 278.481 48.2202 280.206 44.8612 280.206C40.0806 280.206 37.4869 277.333 37.4869 272.734C37.4869 267.758 40.2622 264.113 51.3831 264.113H55.4928V275.415H55.4953ZM65.2575 286.43V252.338C65.2575 243.622 60.2856 237.873 48.3122 237.873C41.323 237.873 35.1958 239.602 30.2142 241.801L31.6479 247.838C35.5712 246.398 40.6449 245.061 45.6241 245.061C52.5262 245.061 55.4928 247.838 55.4928 253.588V257.896H52.0442C35.283 257.896 27.7198 264.399 27.7198 274.178C27.7198 282.603 32.7038 287.391 42.0883 287.391C48.1185 287.391 52.6255 284.902 56.8321 281.257L57.5974 286.432H65.2575V286.43ZM97.8354 286.43H85.6611L71.0068 238.747H81.6409L90.7371 268.048L92.7593 276.851C97.351 264.118 100.606 251.19 102.233 238.75H112.577C109.809 254.445 104.82 271.681 97.8354 286.43V286.43ZM144.547 275.415C140.999 278.481 137.257 280.206 133.91 280.206C129.125 280.206 126.534 277.333 126.534 272.734C126.534 267.758 129.316 264.113 140.425 264.113H144.544V275.415H144.547ZM154.314 286.43V252.338C154.314 243.622 149.327 237.873 137.364 237.873C130.367 237.873 124.243 239.602 119.261 241.801L120.697 247.838C124.62 246.398 129.701 245.061 134.68 245.061C141.573 245.061 144.547 247.838 144.547 253.588V257.896H141.098C124.332 257.896 116.771 264.399 116.771 274.178C116.771 282.603 121.751 287.391 131.133 287.391C137.165 287.391 141.665 284.902 145.884 281.257L146.654 286.432H154.314V286.43ZM17.0155 294.533C14.2377 298.599 9.73801 301.818 4.81694 303.632L0 297.953C3.74651 296.03 6.95538 292.927 8.44962 290.036C9.73801 287.461 10.2732 284.151 10.2732 276.229V221.782H20.6482V275.481C20.6482 286.076 19.8054 290.36 17.0155 294.533V294.533Z" fill="#EA2D2E"/>
</svg>
